<?xml version="1.0" encoding="UTF-8" standalone="no"?>
<!-- Created with Inkscape (http://www.inkscape.org/) -->

<svg
   width="29.914406mm"
   height="43.849171mm"
   viewBox="0 0 29.914405 43.849171"
   version="1.1"
   id="svg1"
   xml:space="preserve"
   xmlns="http://www.w3.org/2000/svg"
   xmlns:svg="http://www.w3.org/2000/svg"><defs
     id="defs1"><linearGradient
       id="swatch1"><stop
         style="stop-color:#000000;stop-opacity:1;"
         offset="0"
         id="stop1" /></linearGradient><mask
       id="mask-powermask-path-effect28"><path
         id="mask-powermask-path-effect28_box"
         style="fill:#ffffff;fill-opacity:1"
         d="m 164.59441,12.224714 h 31.91441 V 48.79332 h -31.91441 z" /><g
         id="icon_versg28"
         transform="rotate(20,194.07542,98.057325)"
         style="display:inline;fill:currentColor;stroke:#000000;stroke-width:4.2;stroke-dasharray:none;stroke-opacity:1"><path
           style="opacity:1;fill:currentColor;fill-opacity:1;stroke:#000000;stroke-width:4.2;stroke-linecap:round;stroke-linejoin:round;stroke-dasharray:none;stroke-opacity:1;paint-order:stroke fill markers"
           id="icon_verspath25"
           d="m 161.65045,14.049189 a 2.5716233,2.4157674 0 0 1 -2.56697,2.415763 2.5716233,2.4157674 0 0 1 -2.57626,-2.407017 2.5716233,2.4157674 0 0 1 2.55764,-2.424478 2.5716233,2.4157674 0 0 1 2.58552,2.398238" /><path
           style="opacity:1;fill:currentColor;fill-opacity:1;stroke:#000000;stroke-width:4.2;stroke-linecap:butt;stroke-linejoin:round;stroke-dasharray:none;stroke-opacity:1;paint-order:stroke fill markers"
           d="m 154.67354,20.453498 8.45242,0.239761 z"
           id="icon_verspath26" /><path
           style="opacity:1;fill:currentColor;fill-opacity:1;stroke:#000000;stroke-width:4.2;stroke-linecap:butt;stroke-linejoin:round;stroke-dasharray:none;stroke-opacity:1;paint-order:stroke fill markers"
           d="m 157.51933,21.773927 0.63773,35.302915 2.14418,-35.211811 z"
           id="icon_verspath27" /><path
           style="opacity:1;fill:currentColor;fill-opacity:1;stroke:#000000;stroke-width:4.2;stroke-linecap:butt;stroke-linejoin:round;stroke-dasharray:none;stroke-opacity:1;paint-order:stroke fill markers"
           d="m 159.1592,14.030061 -0.91104,5.648467 1.50323,0.04555 z"
           id="icon_verspath28" /></g></mask></defs><g
     id="icon_vers"
     transform="translate(-165.59441,-4.7114372)"><g
       id="icon_versg30"><g
         id="icon_versg14"
         transform="rotate(20,194.07544,98.057311)"
         style="display:inline;stroke-width:2.6;stroke-dasharray:none"><path
           style="opacity:1;fill:currentColor;fill-opacity:1;stroke:none;stroke-width:2.6;stroke-linecap:round;stroke-linejoin:round;stroke-dasharray:none;stroke-opacity:1;paint-order:stroke fill markers"
           id="path11"
           d="m 161.65045,14.049189 a 2.5716233,2.4157674 0 0 1 -2.56697,2.415763 2.5716233,2.4157674 0 0 1 -2.57626,-2.407017 2.5716233,2.4157674 0 0 1 2.55764,-2.424478 2.5716233,2.4157674 0 0 1 2.58552,2.398238" /><path
           style="opacity:1;fill:currentColor;fill-opacity:1;stroke:currentColor;stroke-width:2.6;stroke-linecap:butt;stroke-linejoin:round;stroke-dasharray:none;stroke-opacity:1;paint-order:stroke fill markers"
           d="m 154.67354,20.453498 8.45242,0.239761 z"
           id="path12" /><path
           style="opacity:1;fill:currentColor;fill-opacity:1;stroke:currentColor;stroke-width:2.6;stroke-linecap:butt;stroke-linejoin:round;stroke-dasharray:none;stroke-opacity:1;paint-order:stroke fill markers"
           d="m 157.51933,21.773927 0.63773,35.302915 2.14418,-35.211811 z"
           id="path13" /><path
           style="opacity:1;fill:currentColor;fill-opacity:1;stroke:currentColor;stroke-width:2.6;stroke-linecap:butt;stroke-linejoin:round;stroke-dasharray:none;stroke-opacity:1;paint-order:stroke fill markers"
           d="m 159.1592,14.030061 -0.91104,5.648467 1.50323,0.04555 z"
           id="path14" /></g><g
         id="icon_versg31"
         mask="url(#mask-powermask-path-effect28)"
         style="display:inline"><path
           id="path8-8"
           style="display:inline;mix-blend-mode:normal;fill:none;fill-opacity:1;fill-rule:nonzero;stroke:currentColor;stroke-width:4.28893;stroke-linecap:round;stroke-linejoin:round;stroke-dasharray:none;stroke-opacity:1;paint-order:stroke fill markers"
           d="m 180.27276,15.369156 -12.53472,5.988764 c 0,0 -0.10813,3.539538 2.80288,11.280837 3.40624,9.058248 10.00689,13.010136 10.00689,13.010136 0,0 6.12839,-3.920269 10.1927,-13.181976 3.39656,-7.740065 2.54219,-11.057959 2.54219,-11.057959 z"
           mask="none" /></g></g></g></svg>
