<?xml version="1.0" encoding="UTF-8" standalone="no"?>
<!-- Created with Inkscape (http://www.inkscape.org/) -->

<svg
   width="38.841579mm"
   height="39.156651mm"
   viewBox="0 0 38.841578 39.156651"
   version="1.1"
   id="svg1"
   xml:space="preserve"
   xmlns:xlink="http://www.w3.org/1999/xlink"
   xmlns="http://www.w3.org/2000/svg"
   xmlns:svg="http://www.w3.org/2000/svg"><defs
     id="defs1"><linearGradient
       id="swatch1"><stop
         style="stop-color:#000000;stop-opacity:1;"
         offset="0"
         id="stop1" /></linearGradient></defs><g
     id="icon_mastery"
     transform="translate(-111.45884,-10.256015)"><g
       id="icon_masteryg18"
       transform="matrix(0.88537217,0,0,0.88537217,4.5164914,2.7564982)"
       style="fill:none;fill-opacity:1;stroke-width:5.17861;stroke-dasharray:none"><path
         style="fill:none;fill-opacity:1;stroke:currentColor;stroke-width:5.17861;stroke-linecap:round;stroke-linejoin:round;stroke-dasharray:none;stroke-opacity:1;paint-order:stroke fill markers"
         d="m 133.65,43.27454 -8.3816,-20.589571 10.75031,10.021473 0.54663,-19.223007 6.28619,17.674234 5.92178,-17.765338 1.18436,19.587423 10.20368,-10.841411 -7.83497,21.136197 z"
         id="icon_masterypath16" /><path
         style="fill:none;fill-opacity:1;stroke:currentColor;stroke-width:5.17861;stroke-linecap:round;stroke-linejoin:round;stroke-dasharray:none;stroke-opacity:1;paint-order:stroke fill markers"
         id="icon_masterypath17"
         d="m 127.11259,22.168264 a 1.867638,1.867638 0 0 1 -1.86425,1.867635 1.867638,1.867638 0 0 1 -1.87101,-1.860872 1.867638,1.867638 0 0 1 1.85748,-1.874373 1.867638,1.867638 0 0 1 1.87774,1.854086" /><path
         style="fill:none;fill-opacity:1;stroke:currentColor;stroke-width:5.17861;stroke-linecap:round;stroke-linejoin:round;stroke-dasharray:none;stroke-opacity:1;paint-order:stroke fill markers"
         id="icon_masterypath17-6"
         d="m 138.46594,13.012514 a 1.867638,1.867638 0 0 1 -1.86426,1.867635 1.867638,1.867638 0 0 1 -1.87101,-1.860873 1.867638,1.867638 0 0 1 1.85748,-1.874372 1.867638,1.867638 0 0 1 1.87774,1.854086" /><path
         style="fill:none;fill-opacity:1;stroke:currentColor;stroke-width:5.17861;stroke-linecap:round;stroke-linejoin:round;stroke-dasharray:none;stroke-opacity:1;paint-order:stroke fill markers"
         id="icon_masterypath17-60"
         d="m 150.8001,12.92741 a 1.867638,1.867638 0 0 1 -1.86425,1.867635 1.867638,1.867638 0 0 1 -1.87101,-1.860873 1.867638,1.867638 0 0 1 1.85748,-1.874372 1.867638,1.867638 0 0 1 1.87773,1.854086" /><path
         style="fill:none;fill-opacity:1;stroke:currentColor;stroke-width:5.17861;stroke-linecap:round;stroke-linejoin:round;stroke-dasharray:none;stroke-opacity:1;paint-order:stroke fill markers"
         id="icon_masterypath17-5"
         d="m 162.06905,21.573555 a 1.867638,1.867638 0 0 1 -1.86425,1.867635 1.867638,1.867638 0 0 1 -1.87101,-1.860873 1.867638,1.867638 0 0 1 1.85748,-1.874372 1.867638,1.867638 0 0 1 1.87774,1.854086" /><path
         style="fill:none;fill-opacity:1;stroke:currentColor;stroke-width:5.17861;stroke-linecap:round;stroke-linejoin:round;stroke-dasharray:none;stroke-opacity:1;paint-order:stroke fill markers"
         d="m 131.55459,50.107361 22.77608,4e-6 c 0,0 -0.57028,-3.559926 -1.91319,-4.464109 -3.31974,-2.235186 -15.41886,-2.054459 -19.1319,0 -1.39647,0.772681 -1.73099,4.464105 -1.73099,4.464105 z"
         id="icon_masterypath18" /></g></g></svg>
