<?xml version="1.0" encoding="UTF-8" standalone="no"?>
<!-- Created with Inkscape (http://www.inkscape.org/) -->

<svg
   width="44.312927mm"
   height="42.952713mm"
   viewBox="0 0 44.312926 42.952713"
   version="1.1"
   id="svg1"
   xml:space="preserve"
   xmlns="http://www.w3.org/2000/svg"
   xmlns:svg="http://www.w3.org/2000/svg"><defs
     id="defs1"><linearGradient
       id="swatch1"><stop
         style="stop-color:#000000;stop-opacity:1;"
         offset="0"
         id="stop1" /></linearGradient></defs><g
     id="icon_crit"
     transform="translate(-12.308184,-5.9611832)"><g
       id="crit_g3"><path
         style="fill:none;stroke:currentColor;stroke-width:4.537;stroke-linecap:round;stroke-linejoin:round;stroke-dasharray:none;stroke-opacity:1;paint-order:stroke fill markers"
         id="path1"
         d="M 40.996931,33.435272 A 13.210123,13.210123 0 0 1 27.810723,46.645374 13.210123,13.210123 0 0 1 14.576772,33.483102 13.210123,13.210123 0 0 1 27.715063,20.225344 13.210123,13.210123 0 0 1 40.996585,33.339613" /><path
         style="fill:currentColor;fill-opacity:1;stroke:currentColor;stroke-width:2.637;stroke-linecap:round;stroke-linejoin:round;stroke-dasharray:none;stroke-opacity:1;paint-order:stroke fill markers"
         id="path2"
         d="m 32.615336,33.43528 a 4.6463189,4.6463189 0 0 1 -4.637908,4.646311 4.6463189,4.6463189 0 0 1 -4.654699,-4.629488 4.6463189,4.6463189 0 0 1 4.621054,-4.663074 4.6463189,4.6463189 0 0 1 4.671431,4.612605" /><path
         style="fill:currentColor;fill-opacity:1;stroke:currentColor;stroke-width:2.637;stroke-linejoin:round;stroke-dasharray:none;stroke-opacity:1;paint-order:stroke fill markers"
         d="M 28.060123,32.433127 45.369937,17.127607 46.318312,18.230991 29.18247,33.563062 Z"
         id="path3" /><path
         style="fill:currentColor;fill-opacity:1;stroke:currentColor;stroke-width:2.637;stroke-linejoin:round;stroke-dasharray:none;stroke-opacity:1;paint-order:stroke fill markers"
         d="m 42.324244,18.553094 -0.25768,-4.380591 7.537193,-6.8929906 -0.06442,5.1536376 -6.570887,7.086251 z"
         id="path4" /><path
         style="fill:currentColor;fill-opacity:1;stroke:currentColor;stroke-width:2.637;stroke-linejoin:round;stroke-dasharray:none;stroke-opacity:1;paint-order:stroke fill markers"
         d="m 44.029198,20.36612 4.380591,0.25768 6.89299,-7.537193 -5.153637,0.06442 -7.086251,6.570887 z"
         id="path4-8" /></g></g></svg>
